HIERARCHY
ROOT RootJoint
{
    OFFSET   0.000000   0.000000   0.000000
    CHANNELS 6 Xposition Yposition Zposition Xrotation Yrotation Zrotation
    JOINT pelvis_lowerback
    {
        OFFSET   0.000000   0.093605   0.000000
        CHANNELS 3 Xrotation Yrotation Zrotation
        JOINT lowerback_torso
        {
            OFFSET   0.000000   0.100000   0.000000
            CHANNELS 3 Xrotation Yrotation Zrotation
            JOINT torso_head
            {
                OFFSET   0.000000   0.282350   0.000000
                CHANNELS 3 Xrotation Yrotation Zrotation
                End Site
                {
                    OFFSET   0.000000   0.192650   0.000000
                }
            }
            JOINT rTorso_Clavicle
            {
                OFFSET  -0.001000   0.157500   0.000000
                CHANNELS 3 Xrotation Yrotation Zrotation
                JOINT rShoulder
                {
                    OFFSET  -0.117647   0.000000   0.000000
                    CHANNELS 3 Xrotation Yrotation Zrotation
                    JOINT rElbow
                    {
                        OFFSET  -0.245000   0.000000   0.000000
                        CHANNELS 3 Xrotation Yrotation Zrotation
                        JOINT rWrist
                        {
                            OFFSET  -0.240000   0.000000   0.000000
                            CHANNELS 3 Xrotation Yrotation Zrotation
                            End Site
                            {
                                OFFSET  -0.116353  -0.002500   0.000000
                            }
                        }
                    }
                }
            }
            JOINT lTorso_Clavicle
            {
                OFFSET   0.001000   0.157500   0.000000
                CHANNELS 3 Xrotation Yrotation Zrotation
                JOINT lShoulder
                {
                    OFFSET   0.117647   0.000000   0.000000
                    CHANNELS 3 Xrotation Yrotation Zrotation
                    JOINT lElbow
                    {
                        OFFSET   0.245000   0.000000   0.000000
                        CHANNELS 3 Xrotation Yrotation Zrotation
                        JOINT lWrist
                        {
                            OFFSET   0.240000   0.000000   0.000000
                            CHANNELS 3 Xrotation Yrotation Zrotation
                            End Site
                            {
                                OFFSET   0.116353  -0.002500   0.000000
                            }
                        }
                    }
                }
            }
        }
    }
    JOINT rHip
    {
        OFFSET  -0.100000  -0.051395   0.000000
        CHANNELS 3 Xrotation Yrotation Zrotation
        JOINT rKnee
        {
            OFFSET   0.000000  -0.410000   0.000000
            CHANNELS 3 Xrotation Yrotation Zrotation
            JOINT rAnkle
            {
                OFFSET   0.000000  -0.390000   0.000000
                CHANNELS 3 Xrotation Yrotation Zrotation
                JOINT rToeJoint
                {
                    OFFSET   0.000000  -0.050000   0.130000
                    CHANNELS 3 Xrotation Yrotation Zrotation
                    End Site
                    {
                        OFFSET  -0.010000   0.002000   0.060000
                    }
                }
            }
        }
    }
    JOINT lHip
    {
        OFFSET   0.100000  -0.051395   0.000000
        CHANNELS 3 Xrotation Yrotation Zrotation
        JOINT lKnee
        {
            OFFSET   0.000000  -0.410000   0.000000
            CHANNELS 3 Xrotation Yrotation Zrotation
            JOINT lAnkle
            {
                OFFSET   0.000000  -0.390000   0.000000
                CHANNELS 3 Xrotation Yrotation Zrotation
                JOINT lToeJoint
                {
                    OFFSET   0.000000  -0.050000   0.130000
                    CHANNELS 3 Xrotation Yrotation Zrotation
                    End Site
                    {
                        OFFSET   0.010000   0.002000   0.060000
                    }
                }
            }
        }
    }
}
MOTION
Frames: 11
Frame Time:   0.008333
 -2.376719   0.925631   3.975860   0.000000   0.000000   0.000000   0.000000   0.000000   0.000000   0.000000   0.000000   0.000000   0.000000   0.000000   0.000000   0.000000   0.000000   0.000000   0.000000   0.000000   0.000000   0.000000   0.000000   0.000000   0.000000   0.000000   0.000000   0.000000   0.000000   0.000000   0.000000   0.000000   0.000000   0.000000   0.000000   0.000000   0.000000   0.000000   0.000000   0.000000   0.000000   0.000000   0.000000   0.000000   0.000000   0.000000   0.000000   0.000000   0.000000   0.000000   0.000000   0.000000   0.000000   0.000000   0.000000   0.000000   0.000000   0.000000   0.000000   0.000000   0.000000   0.000000   0.000000
 -2.376479   0.924493   3.974926  -0.291504   0.003150   0.160109   0.732189   0.075604  -0.128421   0.020209  -0.042659  -0.045928  -0.267663   0.204634  -0.070425  -0.073469  -0.781770  -0.562363  -0.047305  -0.462727   0.510430  -0.001932   3.712314  -0.010819  -0.033060  -0.819000   0.042290  -0.125889   0.520701   0.551592  -0.058870   0.524422  -0.651921   0.003112  -3.007773   0.007172   0.023090   0.455479   0.242883  -0.193281  -0.053301  -0.455863   1.303880   0.003356  -0.000629  -0.527281  -0.660490   0.317233   0.580062  -0.000118  -0.003603  -0.570635   0.361020   0.058485   2.453822  -0.004455   0.007896  -1.962257   0.438896   0.229851  -0.222157   0.000876  -0.001549
 -2.376255   0.922612   3.973925  -0.683359  -0.077356   0.347292   1.518525   0.179562  -0.268086   0.186578  -0.061485  -0.123621  -0.453383   0.406226  -0.140906  -0.146410  -1.590649  -1.179978  -0.084235  -0.891347   0.935883  -0.007313   7.512485  -0.023135  -0.060701  -0.761992   0.056763  -0.245794   1.088626   1.112316  -0.106845   1.024856  -1.246576   0.004812  -5.885831   0.015259   0.053785   0.161650   0.469436  -0.324414  -0.113067  -1.151430   2.688142   0.008737  -0.002564  -1.002513  -1.289495   0.604779   1.149630   0.000936  -0.006795  -1.079612   0.735333   0.324363   5.037616  -0.012771   0.013809  -3.787323   0.856133   0.463960  -0.468372   0.002170  -0.002757
 -2.376523   0.922401   3.972753  -1.109932   0.069022   0.296979   2.329781   0.181884  -0.260591   0.408749  -0.149962  -0.126813  -0.605104   0.592010  -0.197834  -0.221428  -2.388609  -1.655977  -0.113567  -1.319353   1.364760  -0.005984  11.308710  -0.035045  -0.082840  -0.575546  -0.033263  -0.362199   1.604952   1.508957  -0.146982   1.481693  -1.853684   0.011448  -8.580654   0.022595   0.089539  -0.276952   0.749706  -0.489359   0.050142  -1.109517   3.852445   0.007185   0.000826  -1.662523  -1.584974   1.030761   1.350552  -0.000000  -0.005416  -1.586481   1.066205   1.040280   7.494754  -0.022452   0.023568  -5.480206   1.241199   0.694619  -0.625576   0.002955  -0.003405
 -2.376466   0.922466   3.971571  -1.539206   0.274217   0.481689   3.112982   0.171397  -0.422801   0.652358  -0.250464  -0.221444  -0.733750   0.765560  -0.255076  -0.295190  -3.140833  -2.129959  -0.134096  -1.720938   1.766510  -0.005440  14.946214  -0.043974  -0.104100  -0.331356  -0.054387  -0.472928   2.076430   1.898392  -0.178340   1.900954  -2.429699   0.017056 -11.098782   0.027865   0.126166  -0.734972   0.931687  -0.644792   0.139774  -1.325142   5.010355   0.006298   0.003354  -2.282655  -1.956089   1.304750   0.973933   0.000809  -0.004055  -2.060154   1.385514   1.622410   9.777223  -0.030271   0.032615  -7.063876   1.597335   0.922211  -0.782978   0.003705  -0.003969
 -2.376154   0.922639   3.970402  -1.955420   0.486384   0.784627   3.857506   0.167999  -0.635858   0.894813  -0.339607  -0.374717  -0.849144   0.927887  -0.314893  -0.369983  -3.833103  -2.613070  -0.150790  -2.087533   2.116300  -0.005753  18.346881  -0.049593  -0.123433  -0.050112  -0.087310  -0.578833   2.511262   2.262167  -0.202953   2.289511  -2.970724   0.021169 -13.450251   0.031103   0.162870  -1.183948   1.074130  -0.787348   0.188817  -1.679104   6.116938   0.005837   0.004895  -2.861697  -2.336182   1.542297   0.669317   0.001137  -0.002887  -2.511607   1.687470   2.199308  11.899760  -0.036888   0.039877  -8.545171   1.924564   1.144611  -0.939119   0.004426  -0.004377
 -2.375621   0.922858   3.969259  -2.354970   0.705134   1.161024   4.561495   0.169113  -0.868906   1.128900  -0.416938  -0.559679  -0.955194   1.079599  -0.372505  -0.446370  -4.469372  -3.101874  -0.165881  -2.423466   2.417023  -0.006385  21.523247  -0.052539  -0.140518   0.234557  -0.154284  -0.679983   2.913981   2.598724  -0.221766   2.651088  -3.479413   0.023800 -15.645426   0.032670   0.199157  -1.616175   1.194256  -0.915558   0.223176  -2.120615   7.164636   0.005621   0.005892  -3.400821  -2.698963   1.751670   0.422968   0.001201  -0.002028  -2.947007   1.966606   2.808662  13.874016  -0.042405   0.045578  -9.929791   2.225181   1.361164  -1.086839   0.005041  -0.004604
 -2.375166   0.922345   3.968184  -2.604874   0.697814   1.308541   5.121953   0.268464  -0.879317   1.259111  -0.468234  -0.650264  -1.092149   1.141010  -0.476835  -0.495610  -5.080176  -3.669526  -0.165109  -2.683370   2.660536  -0.007300  24.791269  -0.054401  -0.105473   0.502290  -0.372196  -0.796339   3.507949   2.934404  -0.377089   3.072683  -4.125260   0.026073 -18.038004   0.028800   0.220357  -1.931702   1.494391  -1.449541   0.191090  -2.438035   8.817379   0.007032   0.003233  -4.297211  -3.143378   1.855115   0.486430   0.000994  -0.001913  -3.427136   2.345839   3.843235  15.616147  -0.047942   0.048165 -10.764991   2.594716   1.450756  -1.127433   0.004473  -0.003974
 -2.374786   0.921580   3.967350  -2.870242   0.621676   1.397455   5.646057   0.381136  -0.857164   1.367842  -0.485221  -0.703683  -1.223228   1.191935  -0.561909  -0.548712  -5.637344  -4.195500  -0.166424  -2.911549   2.883227  -0.006821  27.855769  -0.053447  -0.066340   0.867456  -0.637943  -0.909913   4.100800   3.214165  -0.516336   3.492391  -4.748635   0.027245 -20.271165   0.024193   0.237179  -2.273160   1.796725  -2.027121   0.104819  -2.604226  10.439514   0.006429  -0.000536  -5.082988  -3.569659   2.041877   0.300039   0.000996  -0.000507  -3.817810   2.679214   5.055724  17.231067  -0.052935   0.049004 -11.537117   2.941687   1.542147  -1.107419   0.003343  -0.003051
 -2.374254   0.920682   3.966764  -3.142259   0.600488   1.505894   6.118747   0.465616  -0.831855   1.459240  -0.511055  -0.755811  -1.346041   1.237732  -0.638373  -0.603219  -6.163139  -4.677979  -0.166677  -3.128427   3.095937  -0.005346  30.715943  -0.050414  -0.026952   1.235424  -0.897549  -1.017677   4.659350   3.446520  -0.639668   3.890806  -5.349619   0.027365 -22.353741   0.019194   0.254063  -2.597005   2.062059  -2.557525   0.052272  -2.788743  12.030925   0.005934  -0.002298  -5.862401  -3.934145   2.163534   0.115766   0.000881   0.000370  -4.166765   2.966925   6.309689  18.741283  -0.056435   0.050003 -12.257246   3.264877   1.633281  -1.079763   0.002336  -0.002260
 -2.373522   0.919709   3.966381  -3.412538   0.657997   1.646198   6.542493   0.523046  -0.807703   1.530898  -0.553986  -0.809075  -1.462652   1.279940  -0.708633  -0.658078  -6.664869  -5.118465  -0.164928  -3.339331   3.301450  -0.003325  33.382773  -0.046091   0.011651   1.577664  -1.136293  -1.119558   5.176850   3.640266  -0.748884   4.262337  -5.926726   0.026501 -24.297879   0.014137   0.270853  -2.906456   2.287738  -3.030751   0.030779  -3.007319  13.555667   0.005707  -0.002231  -6.628006  -4.243708   2.255875  -0.038032   0.000722   0.000728  -4.498407   3.219401   7.567365  20.149589  -0.058278   0.051271 -12.929848   3.565761   1.722941  -1.051419   0.001516  -0.001609
